<mxfile host="Electron" agent="Mozilla/5.0 (Windows NT 10.0; Win64; x64) AppleWebKit/537.36 (KHTML, like Gecko) draw.io/24.7.8 Chrome/128.0.6613.36 Electron/32.0.1 Safari/537.36" version="24.7.8">
  <diagram name="Страница — 1" id="V2I8i-viEqZShJFHdvwC">
    <mxGraphModel dx="1018" dy="686" grid="1" gridSize="10" guides="1" tooltips="1" connect="1" arrows="1" fold="1" page="1" pageScale="1" pageWidth="827" pageHeight="1169" math="0" shadow="0">
      <root>
        <mxCell id="0" />
        <mxCell id="1" parent="0" />
        <mxCell id="_WW_Yg2yuVAMbP-rgPaO-1" value="" style="ellipse;fillColor=strokeColor;html=1;" vertex="1" parent="1">
          <mxGeometry x="310" y="130" width="30" height="30" as="geometry" />
        </mxCell>
        <mxCell id="_WW_Yg2yuVAMbP-rgPaO-2" value="" style="endArrow=classic;html=1;rounded=1;exitX=0.5;exitY=1;exitDx=0;exitDy=0;entryX=0.5;entryY=0;entryDx=0;entryDy=0;curved=0;" edge="1" parent="1" source="_WW_Yg2yuVAMbP-rgPaO-1" target="_WW_Yg2yuVAMbP-rgPaO-3">
          <mxGeometry width="50" height="50" relative="1" as="geometry">
            <mxPoint x="540" y="450" as="sourcePoint" />
            <mxPoint x="590" y="400" as="targetPoint" />
          </mxGeometry>
        </mxCell>
        <mxCell id="_WW_Yg2yuVAMbP-rgPaO-3" value="" style="rhombus;" vertex="1" parent="1">
          <mxGeometry x="310" y="210" width="30" height="30" as="geometry" />
        </mxCell>
        <mxCell id="_WW_Yg2yuVAMbP-rgPaO-5" value="Ввод имени" style="html=1;align=center;verticalAlign=top;rounded=1;absoluteArcSize=1;arcSize=10;dashed=0;whiteSpace=wrap;fillColor=#fff2cc;strokeColor=#d6b656;" vertex="1" parent="1">
          <mxGeometry x="450" y="205" width="140" height="40" as="geometry" />
        </mxCell>
        <mxCell id="_WW_Yg2yuVAMbP-rgPaO-6" value="" style="endArrow=classic;html=1;rounded=1;exitX=1;exitY=0.5;exitDx=0;exitDy=0;entryX=0;entryY=0.5;entryDx=0;entryDy=0;curved=0;" edge="1" parent="1" source="_WW_Yg2yuVAMbP-rgPaO-3" target="_WW_Yg2yuVAMbP-rgPaO-5">
          <mxGeometry width="50" height="50" relative="1" as="geometry">
            <mxPoint x="335" y="170" as="sourcePoint" />
            <mxPoint x="335" y="220" as="targetPoint" />
          </mxGeometry>
        </mxCell>
        <mxCell id="_WW_Yg2yuVAMbP-rgPaO-9" value="[пользователь&lt;div&gt;неизвестен]&lt;/div&gt;" style="edgeLabel;html=1;align=center;verticalAlign=middle;resizable=0;points=[];" vertex="1" connectable="0" parent="_WW_Yg2yuVAMbP-rgPaO-6">
          <mxGeometry x="-0.0688" y="1" relative="1" as="geometry">
            <mxPoint y="-14" as="offset" />
          </mxGeometry>
        </mxCell>
        <mxCell id="_WW_Yg2yuVAMbP-rgPaO-7" value="Ввод группы" style="html=1;align=center;verticalAlign=top;rounded=1;absoluteArcSize=1;arcSize=10;dashed=0;whiteSpace=wrap;fillColor=#fff2cc;strokeColor=#d6b656;" vertex="1" parent="1">
          <mxGeometry x="650" y="205" width="140" height="40" as="geometry" />
        </mxCell>
        <mxCell id="_WW_Yg2yuVAMbP-rgPaO-8" value="" style="endArrow=classic;html=1;rounded=1;exitX=1;exitY=0.5;exitDx=0;exitDy=0;entryX=0;entryY=0.5;entryDx=0;entryDy=0;curved=0;" edge="1" parent="1" source="_WW_Yg2yuVAMbP-rgPaO-5" target="_WW_Yg2yuVAMbP-rgPaO-7">
          <mxGeometry width="50" height="50" relative="1" as="geometry">
            <mxPoint x="410" y="235" as="sourcePoint" />
            <mxPoint x="460" y="235" as="targetPoint" />
          </mxGeometry>
        </mxCell>
        <mxCell id="_WW_Yg2yuVAMbP-rgPaO-10" value="Основное состояние" style="html=1;align=center;verticalAlign=top;rounded=1;absoluteArcSize=1;arcSize=10;dashed=0;whiteSpace=wrap;fillColor=#fff2cc;strokeColor=#d6b656;" vertex="1" parent="1">
          <mxGeometry x="255" y="370" width="140" height="40" as="geometry" />
        </mxCell>
        <mxCell id="_WW_Yg2yuVAMbP-rgPaO-11" value="" style="endArrow=classic;html=1;rounded=1;exitX=0.5;exitY=1;exitDx=0;exitDy=0;entryX=0.5;entryY=0;entryDx=0;entryDy=0;curved=0;" edge="1" parent="1" source="_WW_Yg2yuVAMbP-rgPaO-13" target="_WW_Yg2yuVAMbP-rgPaO-10">
          <mxGeometry width="50" height="50" relative="1" as="geometry">
            <mxPoint x="335" y="170" as="sourcePoint" />
            <mxPoint x="335" y="220" as="targetPoint" />
          </mxGeometry>
        </mxCell>
        <mxCell id="_WW_Yg2yuVAMbP-rgPaO-12" value="" style="endArrow=classic;html=1;rounded=1;exitX=0.5;exitY=1;exitDx=0;exitDy=0;entryX=1;entryY=0.5;entryDx=0;entryDy=0;curved=0;" edge="1" parent="1" source="_WW_Yg2yuVAMbP-rgPaO-7" target="_WW_Yg2yuVAMbP-rgPaO-13">
          <mxGeometry width="50" height="50" relative="1" as="geometry">
            <mxPoint x="600" y="235" as="sourcePoint" />
            <mxPoint x="660" y="235" as="targetPoint" />
            <Array as="points">
              <mxPoint x="720" y="305" />
            </Array>
          </mxGeometry>
        </mxCell>
        <mxCell id="_WW_Yg2yuVAMbP-rgPaO-14" value="" style="endArrow=classic;html=1;rounded=1;exitX=0.5;exitY=1;exitDx=0;exitDy=0;entryX=0.5;entryY=0;entryDx=0;entryDy=0;curved=0;" edge="1" parent="1" source="_WW_Yg2yuVAMbP-rgPaO-3" target="_WW_Yg2yuVAMbP-rgPaO-13">
          <mxGeometry width="50" height="50" relative="1" as="geometry">
            <mxPoint x="325" y="240" as="sourcePoint" />
            <mxPoint x="325" y="380" as="targetPoint" />
          </mxGeometry>
        </mxCell>
        <mxCell id="_WW_Yg2yuVAMbP-rgPaO-13" value="" style="rhombus;" vertex="1" parent="1">
          <mxGeometry x="310" y="290" width="30" height="30" as="geometry" />
        </mxCell>
        <mxCell id="_WW_Yg2yuVAMbP-rgPaO-16" value="" style="endArrow=classic;html=1;rounded=1;exitX=1;exitY=0.25;exitDx=0;exitDy=0;curved=0;entryX=-0.008;entryY=0.339;entryDx=0;entryDy=0;entryPerimeter=0;" edge="1" parent="1" source="_WW_Yg2yuVAMbP-rgPaO-10" target="_WW_Yg2yuVAMbP-rgPaO-25">
          <mxGeometry width="50" height="50" relative="1" as="geometry">
            <mxPoint x="335" y="330" as="sourcePoint" />
            <mxPoint x="335" y="380" as="targetPoint" />
          </mxGeometry>
        </mxCell>
        <mxCell id="_WW_Yg2yuVAMbP-rgPaO-18" value="[провести&lt;div&gt;контроль&lt;/div&gt;&lt;div&gt;знаний]&lt;/div&gt;" style="edgeLabel;html=1;align=center;verticalAlign=middle;resizable=0;points=[];" vertex="1" connectable="0" parent="_WW_Yg2yuVAMbP-rgPaO-16">
          <mxGeometry x="-0.0882" y="2" relative="1" as="geometry">
            <mxPoint x="2" y="-20" as="offset" />
          </mxGeometry>
        </mxCell>
        <mxCell id="_WW_Yg2yuVAMbP-rgPaO-17" value="" style="endArrow=classic;html=1;rounded=1;entryX=1;entryY=0.75;entryDx=0;entryDy=0;curved=0;exitX=-0.008;exitY=0.665;exitDx=0;exitDy=0;exitPerimeter=0;" edge="1" parent="1" source="_WW_Yg2yuVAMbP-rgPaO-25" target="_WW_Yg2yuVAMbP-rgPaO-10">
          <mxGeometry width="50" height="50" relative="1" as="geometry">
            <mxPoint x="405" y="390" as="sourcePoint" />
            <mxPoint x="520" y="390" as="targetPoint" />
          </mxGeometry>
        </mxCell>
        <mxCell id="_WW_Yg2yuVAMbP-rgPaO-19" value="Изменение данных о пользователе" style="html=1;align=center;verticalAlign=top;rounded=1;absoluteArcSize=1;arcSize=10;dashed=0;whiteSpace=wrap;fillColor=#fff2cc;strokeColor=#d6b656;" vertex="1" parent="1">
          <mxGeometry y="370" width="140" height="40" as="geometry" />
        </mxCell>
        <mxCell id="_WW_Yg2yuVAMbP-rgPaO-20" value="" style="endArrow=classic;html=1;rounded=1;exitX=1;exitY=0.75;exitDx=0;exitDy=0;curved=0;entryX=0;entryY=0.75;entryDx=0;entryDy=0;" edge="1" parent="1" source="_WW_Yg2yuVAMbP-rgPaO-19" target="_WW_Yg2yuVAMbP-rgPaO-10">
          <mxGeometry width="50" height="50" relative="1" as="geometry">
            <mxPoint x="520" y="410" as="sourcePoint" />
            <mxPoint x="170" y="470" as="targetPoint" />
          </mxGeometry>
        </mxCell>
        <mxCell id="_WW_Yg2yuVAMbP-rgPaO-22" value="" style="endArrow=classic;html=1;rounded=1;exitX=0;exitY=0.25;exitDx=0;exitDy=0;entryX=1;entryY=0.25;entryDx=0;entryDy=0;curved=0;" edge="1" parent="1" source="_WW_Yg2yuVAMbP-rgPaO-10" target="_WW_Yg2yuVAMbP-rgPaO-19">
          <mxGeometry width="50" height="50" relative="1" as="geometry">
            <mxPoint x="405" y="390" as="sourcePoint" />
            <mxPoint x="520" y="390" as="targetPoint" />
          </mxGeometry>
        </mxCell>
        <mxCell id="_WW_Yg2yuVAMbP-rgPaO-23" value="[изменить&lt;div&gt;группу/имя]&lt;/div&gt;" style="edgeLabel;html=1;align=center;verticalAlign=middle;resizable=0;points=[];" vertex="1" connectable="0" parent="_WW_Yg2yuVAMbP-rgPaO-22">
          <mxGeometry x="-0.0882" y="2" relative="1" as="geometry">
            <mxPoint x="-12" y="-22" as="offset" />
          </mxGeometry>
        </mxCell>
        <mxCell id="_WW_Yg2yuVAMbP-rgPaO-25" value="Контроль знаний" style="shape=umlState;rounded=1;verticalAlign=top;spacingTop=5;umlStateSymbol=collapseState;absoluteArcSize=1;arcSize=10;html=1;whiteSpace=wrap;fillColor=#fff2cc;strokeColor=#d6b656;" vertex="1" parent="1">
          <mxGeometry x="540" y="360" width="140" height="60" as="geometry" />
        </mxCell>
        <mxCell id="_WW_Yg2yuVAMbP-rgPaO-26" value="Оспаривание результатов" style="shape=umlState;rounded=1;verticalAlign=top;spacingTop=5;umlStateSymbol=collapseState;absoluteArcSize=1;arcSize=10;html=1;whiteSpace=wrap;fillColor=#fff2cc;strokeColor=#d6b656;" vertex="1" parent="1">
          <mxGeometry x="255" y="460" width="140" height="60" as="geometry" />
        </mxCell>
        <mxCell id="_WW_Yg2yuVAMbP-rgPaO-27" value="" style="endArrow=classic;html=1;rounded=1;exitX=0.25;exitY=1;exitDx=0;exitDy=0;entryX=0.248;entryY=-0.025;entryDx=0;entryDy=0;curved=0;entryPerimeter=0;" edge="1" parent="1" source="_WW_Yg2yuVAMbP-rgPaO-10" target="_WW_Yg2yuVAMbP-rgPaO-26">
          <mxGeometry width="50" height="50" relative="1" as="geometry">
            <mxPoint x="335" y="330" as="sourcePoint" />
            <mxPoint x="335" y="380" as="targetPoint" />
          </mxGeometry>
        </mxCell>
        <mxCell id="_WW_Yg2yuVAMbP-rgPaO-29" value="[оспрорить&lt;div&gt;результаты]&lt;/div&gt;" style="edgeLabel;html=1;align=center;verticalAlign=middle;resizable=0;points=[];" vertex="1" connectable="0" parent="_WW_Yg2yuVAMbP-rgPaO-27">
          <mxGeometry x="-0.1126" y="1" relative="1" as="geometry">
            <mxPoint x="-36" y="-2" as="offset" />
          </mxGeometry>
        </mxCell>
        <mxCell id="_WW_Yg2yuVAMbP-rgPaO-28" value="" style="endArrow=classic;html=1;rounded=1;exitX=0.752;exitY=-0.051;exitDx=0;exitDy=0;entryX=0.75;entryY=1;entryDx=0;entryDy=0;curved=0;exitPerimeter=0;" edge="1" parent="1" source="_WW_Yg2yuVAMbP-rgPaO-26" target="_WW_Yg2yuVAMbP-rgPaO-10">
          <mxGeometry width="50" height="50" relative="1" as="geometry">
            <mxPoint x="300" y="420" as="sourcePoint" />
            <mxPoint x="300" y="479" as="targetPoint" />
          </mxGeometry>
        </mxCell>
      </root>
    </mxGraphModel>
  </diagram>
</mxfile>
